<svg xmlns="http://www.w3.org/2000/svg" width="14.575" height="15.355" viewBox="0 0 14.575 15.355"><defs><style>.a{fill:#0f2126;}</style></defs><path class="a" d="M63.042,0V15.356H77.618V0ZM76.716,14.406H63.975V.95h12.74Z" transform="translate(-63.042)"/><path class="a" d="M194.179,66.772a1.58,1.58,0,1,0-1.58-1.58A1.582,1.582,0,0,0,194.179,66.772Zm0-2.21a.63.63,0,1,1-.63.63A.631.631,0,0,1,194.179,64.562Z" transform="translate(-187.167 -61.503)"/><path class="a" d="M164.907,194.27c0-1.481-1.617-2.685-3.605-2.685s-3.605,1.2-3.605,2.685v.475h7.21Zm-5.846-.475a2.623,2.623,0,0,1,4.482,0Z" transform="translate(-154.289 -185.614)"/><rect class="a" width="5.239" height="0.95" transform="translate(2.47 12.297)"/><rect class="a" width="9.622" height="0.95" transform="translate(2.47 10.239)"/></svg>