<svg xmlns="http://www.w3.org/2000/svg" width="17.588" height="15.795" viewBox="0 0 17.588 15.795"><defs><style>.a{fill:none;stroke:#0f2126;stroke-width:1.3px;}</style></defs><g transform="translate(-568.755 -425.703)"><path class="a" d="M.561,34.985H1.885v5.3a.569.569,0,0,0,.567.567H6.33a.569.569,0,0,0,.567-.567V36.4H9.262v3.877a.569.569,0,0,0,.567.567h3.688a.569.569,0,0,0,.567-.567v-5.3h1.608a.565.565,0,0,0,.4-.965l-7.4-7.5a.565.565,0,0,0-.794-.009l-7.726,7.5a.568.568,0,0,0-.132.624A.553.553,0,0,0,.561,34.985Z" transform="translate(569.422 400)"/></g></svg>