<?xml version="1.0" standalone="no"?>
<!DOCTYPE svg PUBLIC "-//W3C//DTD SVG 20010904//EN"
 "http://www.w3.org/TR/2001/REC-SVG-20010904/DTD/svg10.dtd">
<svg version="1.0" xmlns="http://www.w3.org/2000/svg"
 width="823.000000pt" height="966.000000pt" viewBox="0 0 823.000000 966.000000"
 preserveAspectRatio="xMidYMid meet">

<g transform="translate(0.000000,966.000000) scale(0.100000,-0.100000)"
fill="#000000" stroke="none">
<path d="M5125 6258 c3 -16 1 -28 -5 -28 -5 0 -10 5 -10 10 0 6 -7 10 -16 10
-8 0 -12 5 -9 10 8 13 -6 13 -25 0 -13 -9 -13 -11 0 -20 12 -8 11 -10 -7 -10
-13 0 -22 5 -20 13 1 8 -13 13 -43 14 -43 1 -44 1 -10 -7 33 -7 33 -7 7 -9
-16 0 -26 -5 -22 -11 3 -5 -1 -10 -9 -10 -9 0 -16 4 -16 9 0 6 -18 9 -39 8
-31 -1 -38 -4 -29 -14 13 -16 -4 -17 -19 -2 -6 6 -17 8 -23 4 -9 -6 -9 -10 1
-17 10 -7 5 -8 -14 -3 -19 4 -26 2 -22 -5 4 -6 -10 -11 -37 -11 -24 -1 -57 -3
-75 -5 -24 -2 -30 1 -26 12 4 10 0 12 -11 8 -9 -3 -14 -10 -11 -14 9 -14 -15
-22 -30 -10 -9 8 -15 8 -20 0 -3 -6 -11 -8 -16 -5 -5 4 -9 3 -9 -2 0 -4 -11
-9 -25 -9 -20 -2 -23 1 -15 11 8 9 7 14 -4 18 -10 4 -16 -2 -18 -16 -2 -16
-10 -22 -27 -22 -24 0 -44 -30 -33 -50 3 -5 -10 6 -29 26 -38 40 -66 54 -66
34 0 -7 6 -11 12 -8 9 3 11 -5 9 -26 -4 -33 17 -61 45 -61 35 0 676 120 693
130 23 13 41 13 33 0 -8 -12 -8 -12 32 -1 27 8 35 6 42 -7 5 -9 13 -14 16 -10
9 8 -40 58 -56 58 -7 0 -4 -7 7 -15 19 -14 19 -14 -1 -15 -13 0 -26 12 -37 38
-15 30 -17 32 -13 10z m-25 -38 c0 -5 -4 -10 -10 -10 -5 0 -10 5 -10 10 0 6 5
10 10 10 6 0 10 -4 10 -10z m-317 -47 c-7 -2 -19 -2 -25 0 -7 3 -2 5 12 5 14
0 19 -2 13 -5z m-383 -53 c0 -5 -2 -10 -4 -10 -3 0 -8 5 -11 10 -3 6 -1 10 4
10 6 0 11 -4 11 -10z"/>
<path d="M4695 6200 c-3 -5 -2 -10 4 -10 5 0 13 5 16 10 3 6 2 10 -4 10 -5 0
-13 -4 -16 -10z"/>
<path d="M4738 6203 c7 -3 16 -2 19 1 4 3 -2 6 -13 5 -11 0 -14 -3 -6 -6z"/>
<path d="M4475 6180 c-3 -5 -1 -10 4 -10 6 0 11 5 11 10 0 6 -2 10 -4 10 -3 0
-8 -4 -11 -10z"/>
<path d="M5144 6178 c-5 -7 -3 -8 6 -3 10 6 12 4 7 -8 -3 -10 -2 -17 3 -17 6
0 10 -8 10 -18 0 -11 8 -26 19 -36 17 -16 19 -15 35 6 16 21 16 21 0 -8 l-17
-32 46 -58 c100 -128 194 -209 293 -254 73 -33 106 -41 174 -42 29 0 48 -3 44
-7 -5 -4 -124 -30 -266 -57 -149 -28 -251 -52 -245 -57 7 -5 2 -6 -10 -2 -13
3 -82 -6 -155 -21 -118 -23 -141 -25 -202 -16 -133 20 -264 109 -383 259 -39
48 -76 98 -82 111 -7 12 -16 20 -22 16 -6 -4 -6 -10 1 -19 14 -17 -12 -61 -41
-70 -10 -4 -19 -15 -19 -26 0 -10 -4 -19 -10 -19 -5 0 -10 -9 -10 -19 0 -12
-8 -21 -21 -23 -12 -2 -25 -10 -29 -18 -4 -8 -17 -35 -29 -58 -26 -55 -27 -84
-1 -107 20 -18 20 -19 -15 -47 -36 -30 -47 -71 -22 -81 9 -4 8 -8 -3 -17 -12
-9 -12 -13 -2 -17 29 -12 69 -54 88 -94 48 -98 54 -112 54 -121 0 -4 11 -26
25 -48 14 -21 22 -46 19 -53 -11 -30 38 -64 153 -107 17 -6 40 -22 52 -34 20
-21 20 -27 9 -80 -6 -32 -21 -72 -33 -90 -12 -18 -25 -44 -29 -59 -5 -23 -50
-103 -98 -176 -20 -29 -38 -68 -38 -81 0 -4 -36 -42 -80 -83 -44 -42 -80 -79
-80 -83 0 -4 -9 -18 -21 -30 -19 -20 -19 -26 -9 -85 15 -85 20 -100 31 -94 5
3 6 -1 3 -9 -8 -21 24 -82 58 -112 17 -13 29 -26 27 -28 -2 -2 -38 5 -79 15
-41 11 -147 36 -235 55 -88 20 -198 45 -244 56 -46 10 -93 16 -105 13 -17 -5
-18 -4 -6 5 13 9 12 11 -5 9 -11 -1 -27 1 -35 4 -43 17 -145 36 -168 32 -24
-5 -24 -4 -7 5 18 9 17 10 -7 7 -15 -2 -29 0 -30 4 -2 5 -18 9 -35 11 -18 1
-33 6 -33 10 0 5 -12 14 -26 20 -17 8 -24 18 -21 30 3 10 1 18 -3 18 -5 0 -11
8 -13 18 -3 12 -5 11 -6 -6 0 -13 4 -32 9 -43 7 -13 7 -19 0 -19 -5 0 -10 8
-11 18 -1 11 -4 9 -9 -8 -5 -15 -6 3 -2 43 3 47 1 67 -7 67 -6 0 -11 -5 -11
-11 0 -8 -6 -7 -17 2 -9 8 -14 9 -10 2 4 -6 1 -14 -5 -16 -7 -3 -1 -6 15 -6
15 -1 27 -5 27 -10 0 -14 -77 -20 -210 -15 -200 8 -230 5 -277 -21 -24 -13
-43 -19 -43 -14 0 5 -7 9 -15 9 -8 0 -25 10 -37 22 -14 14 -23 18 -26 10 -5
-15 -79 -16 -84 -2 -2 7 -14 7 -36 -1 -18 -6 -47 -8 -65 -4 -18 3 -45 6 -62 6
-27 -1 -74 10 -115 26 -8 4 -25 8 -37 9 -16 2 -11 -6 25 -39 26 -23 47 -42 48
-42 0 0 -2 -34 -6 -75 -3 -41 -2 -76 2 -78 4 -2 8 -30 8 -61 0 -48 4 -61 25
-81 14 -13 25 -29 25 -35 0 -7 9 -24 20 -37 10 -14 16 -29 12 -33 -4 -4 8 -6
25 -3 28 4 33 1 33 -16 0 -20 38 -46 66 -46 6 0 29 -15 50 -34 27 -24 59 -40
101 -50 35 -9 89 -28 120 -42 32 -14 81 -28 108 -31 28 -3 52 -8 55 -13 3 -4
21 -11 40 -15 19 -4 42 -13 50 -19 10 -9 37 -11 88 -7 47 4 72 3 72 -4 0 -6
11 -12 24 -13 22 -1 23 2 29 74 3 42 8 78 11 82 3 3 50 -7 103 -23 174 -49
227 -64 268 -73 22 -5 49 -13 59 -18 14 -5 17 -4 12 4 -4 7 -2 12 3 12 6 0 11
-6 11 -14 0 -20 32 -25 95 -17 30 4 52 4 49 -1 -3 -4 -15 -8 -27 -8 -17 -1
-19 -2 -7 -9 9 -6 41 -4 80 4 36 7 53 13 38 14 -31 1 -45 16 -22 25 22 8 26 8
19 -4 -3 -5 1 -10 10 -10 10 0 14 5 10 13 -4 6 1 3 9 -7 14 -17 16 -18 16 -3
0 14 11 17 64 17 51 0 70 5 100 25 20 13 36 20 36 15 0 -18 32 -11 64 14 17
13 41 26 54 30 12 4 37 21 54 37 18 16 38 29 45 29 7 0 13 5 13 10 0 6 20 20
44 32 28 13 47 30 50 44 3 12 22 32 41 44 35 21 70 82 61 105 -2 6 5 22 15 36
27 35 26 127 -2 163 -11 14 -17 26 -12 26 4 0 22 12 38 28 34 30 52 42 108 72
39 21 42 27 28 49 -7 10 -13 11 -27 2 -18 -10 -18 -10 4 -11 12 0 22 -4 22
-10 0 -5 -13 -10 -29 -10 -17 0 -33 -5 -36 -10 -5 -8 -11 -8 -20 0 -7 6 -21 7
-30 3 -15 -5 -17 -3 -12 11 6 15 4 17 -10 11 -10 -4 -29 -10 -41 -13 -18 -3
-20 -7 -10 -13 9 -6 7 -9 -9 -9 -12 0 -25 -5 -29 -11 -4 -8 4 -9 27 -4 43 9
51 14 44 26 -3 5 1 6 10 3 17 -7 14 -30 -4 -26 -6 1 -11 -2 -11 -8 0 -5 -26
-10 -57 -11 -42 0 -52 -3 -38 -9 17 -7 15 -9 -12 -9 -17 -1 -38 -4 -47 -7 -9
-3 -16 -1 -16 5 0 6 11 11 24 11 32 0 42 27 13 33 -13 3 -7 5 16 6 22 0 45 9
57 21 11 11 25 20 30 20 6 0 10 4 10 10 0 5 24 16 52 25 61 18 158 79 158 99
0 8 6 17 13 19 9 4 9 6 -1 6 -23 2 -2 21 22 21 13 0 39 6 57 14 53 22 292 243
334 309 21 32 63 80 93 106 l55 49 -44 7 c-86 13 -172 47 -247 98 -47 32 -188
165 -181 171 2 2 177 39 389 81 212 43 386 79 388 80 2 2 4 12 5 24 1 11 4 21
8 21 3 0 21 28 39 63 19 34 43 78 55 97 56 91 85 230 48 230 -10 0 -27 12 -39
27 -20 25 -24 26 -46 14 -14 -7 -34 -11 -44 -10 -10 2 -25 0 -32 -5 -9 -5 -15
-2 -19 12 -6 23 -30 32 -89 32 -48 0 -67 17 -60 53 4 21 0 26 -22 32 -15 3
-79 31 -142 62 -90 44 -111 57 -95 63 19 7 19 7 -2 18 -12 7 -33 12 -47 12
-14 0 -26 5 -26 10 0 14 -47 13 -56 -2z m110 -33 c-4 -8 -8 -15 -10 -15 -2 0
-4 7 -4 15 0 8 4 15 10 15 5 0 7 -7 4 -15z m-534 -1866 c0 -5 -7 -9 -15 -9 -8
0 -15 7 -15 15 0 9 6 12 15 9 8 -4 15 -10 15 -15z m-1470 -39 c0 -5 -4 -10
-10 -10 -5 0 -10 5 -10 10 0 6 5 10 10 10 6 0 10 -4 10 -10z m1255 -20 c3 -5
-1 -10 -10 -10 -9 0 -13 5 -10 10 3 6 8 10 10 10 2 0 7 -4 10 -10z m-1278 -22
c-3 -8 -6 -5 -6 6 -1 11 2 17 5 13 3 -3 4 -12 1 -19z m95 -22 c7 4 8 2 4 -5
-9 -13 -26 -5 -25 12 0 9 2 8 6 -1 2 -6 10 -9 15 -6z m72 -35 c3 -4 -6 -6 -19
-3 -14 2 -25 6 -25 8 0 8 39 4 44 -5z m381 -589 c-3 -3 -11 0 -18 7 -9 10 -8
11 6 5 10 -3 15 -9 12 -12z m142 -8 c-3 -3 -12 -4 -19 -1 -8 3 -5 6 6 6 11 1
17 -2 13 -5z"/>
<path d="M4250 6149 c0 -5 6 -9 13 -9 8 0 7 -4 -3 -10 -20 -13 -33 -13 -25 0
3 6 1 10 -4 10 -17 0 -13 -30 4 -36 8 -4 15 -10 15 -15 0 -19 -39 11 -43 33
-4 20 -4 19 -6 -4 -1 -30 29 -54 56 -44 12 5 13 9 3 21 -10 12 -8 18 10 33
l23 19 -21 5 c-12 4 -22 2 -22 -3z"/>
<path d="M4148 6133 c7 -3 16 -2 19 1 4 3 -2 6 -13 5 -11 0 -14 -3 -6 -6z"/>
<path d="M4191 4484 c0 -11 3 -14 6 -6 3 7 2 16 -1 19 -3 4 -6 -2 -5 -13z"/>
<path d="M4900 4379 c0 -5 5 -7 10 -4 6 3 10 8 10 11 0 2 -4 4 -10 4 -5 0 -10
-5 -10 -11z"/>
<path d="M4250 4360 c0 -5 5 -10 10 -10 6 0 10 5 10 10 0 6 -4 10 -10 10 -5 0
-10 -4 -10 -10z"/>
<path d="M4221 4334 c0 -11 3 -14 6 -6 3 7 2 16 -1 19 -3 4 -6 -2 -5 -13z"/>
<path d="M4839 4333 c-13 -16 -12 -17 4 -4 16 13 21 21 13 21 -2 0 -10 -8 -17
-17z"/>
<path d="M4202 4300 c0 -14 2 -19 5 -12 2 6 2 18 0 25 -3 6 -5 1 -5 -13z"/>
<path d="M3958 3523 c7 -3 16 -2 19 1 4 3 -2 6 -13 5 -11 0 -14 -3 -6 -6z"/>
<path d="M3890 3516 c0 -2 9 -6 20 -9 11 -3 18 -1 14 4 -5 9 -34 13 -34 5z"/>
<path d="M7910 3055 c-542 -171 -1014 -319 -1305 -411 -165 -51 -311 -99 -324
-104 l-24 -11 7 -187 c20 -536 33 -956 30 -971 -1 -9 -6 -34 -10 -56 -5 -33
-8 -37 -14 -20 -8 19 -9 19 -9 -3 -1 -15 -5 -21 -13 -16 -7 5 -9 2 -5 -9 4
-12 2 -14 -9 -10 -14 5 -14 3 -3 -15 11 -17 11 -25 -1 -46 -7 -14 -21 -28 -32
-32 -17 -5 -27 -50 -17 -79 2 -5 3 -24 3 -42 0 -23 6 -35 23 -44 13 -7 23 -20
23 -30 0 -10 4 -20 8 -23 5 -3 8 -22 7 -41 -2 -27 1 -35 10 -31 9 3 15 -4 17
-17 2 -17 9 -22 31 -20 19 1 38 -7 55 -23 15 -14 53 -41 85 -61 60 -36 60 -36
162 -18 6 1 18 3 27 3 9 1 19 10 21 20 4 16 5 16 6 0 1 -16 6 -19 29 -17 4 0
10 -10 14 -23 5 -18 6 -15 7 15 1 22 5 36 11 32 5 -3 7 -12 3 -20 -3 -9 0 -22
6 -29 7 -8 8 -16 4 -18 -4 -3 -2 -3 5 -1 14 3 18 0 66 -41 15 -14 37 -28 47
-31 11 -4 19 -10 19 -15 0 -5 16 -18 35 -30 20 -12 41 -27 48 -34 6 -6 30 -25
52 -41 22 -17 42 -32 45 -36 3 -3 31 -24 62 -47 31 -23 59 -46 63 -52 13 -21
28 -17 240 65 33 13 110 43 170 66 61 23 124 47 140 54 17 7 63 25 103 39 41
14 117 44 170 65 54 22 126 50 162 63 l65 24 2 284 c1 157 -1 279 -4 273 -2
-7 -12 -13 -21 -12 -10 0 -12 3 -5 5 7 3 9 12 6 21 -4 11 -2 14 5 9 7 -4 12
-2 12 3 0 6 -4 11 -9 11 -4 0 -4 19 1 43 15 73 21 126 14 142 -3 9 -8 320 -11
693 -6 755 -11 922 -29 921 -6 0 -130 -38 -276 -84z m230 -100 c0 -61 -3 -85
-12 -85 -10 0 -10 -2 -1 -8 19 -12 21 -68 25 -591 3 -442 1 -504 -12 -506 -8
-2 -28 -6 -45 -11 l-29 -7 18 28 18 28 -78 -8 c-43 -4 -87 -12 -98 -18 -45
-22 -55 -26 -92 -33 -49 -8 -136 -47 -153 -67 -7 -9 -38 -19 -69 -23 -38 -5
-69 -16 -96 -35 -21 -16 -47 -29 -58 -29 -10 0 -18 -4 -18 -9 0 -5 -17 -13
-37 -19 -84 -23 -148 -53 -193 -91 -73 -62 -114 -83 -167 -84 l-47 -2 3 45 3
45 -23 -30 c-13 -16 -30 -35 -38 -41 -8 -6 -11 -15 -8 -21 4 -6 -20 -18 -56
-28 -34 -9 -68 -19 -75 -21 -7 -2 -11 -8 -8 -13 4 -5 -20 -17 -51 -26 -32 -9
-85 -30 -118 -47 -33 -17 -95 -48 -137 -70 -43 -22 -82 -37 -86 -34 -5 3 -12
72 -15 153 -41 974 -41 977 -28 981 11 4 11 6 0 13 -10 6 -15 35 -17 91 l-4
83 179 57 c207 65 702 225 1228 396 204 66 376 121 383 121 9 1 12 -22 12 -84z
m-1843 -1797 c-3 -7 -5 -2 -5 12 0 14 2 19 5 13 2 -7 2 -19 0 -25z m831 -263
c-3 -3 -9 2 -12 12 -6 14 -5 15 5 6 7 -7 10 -15 7 -18z m-58 -5 c0 -5 -7 -7
-15 -4 -8 4 -15 8 -15 10 0 2 7 4 15 4 8 0 15 -4 15 -10z m-762 -31 c-2 -6 -8
-10 -13 -10 -5 0 -11 4 -13 10 -2 6 4 11 13 11 9 0 15 -5 13 -11z"/>
<path d="M7960 2840 c0 -5 5 -10 11 -10 5 0 7 5 4 10 -3 6 -8 10 -11 10 -2 0
-4 -4 -4 -10z"/>
<path d="M7925 2820 c-3 -5 -2 -10 4 -10 5 0 13 5 16 10 3 6 2 10 -4 10 -5 0
-13 -4 -16 -10z"/>
<path d="M8090 2820 c0 -5 5 -10 10 -10 6 0 10 5 10 10 0 6 -4 10 -10 10 -5 0
-10 -4 -10 -10z"/>
<path d="M7850 2809 c0 -5 5 -7 10 -4 6 3 10 8 10 11 0 2 -4 4 -10 4 -5 0 -10
-5 -10 -11z"/>
<path d="M7987 2813 c-4 -3 -7 -15 -7 -25 0 -10 -4 -18 -10 -18 -5 0 -10 -4
-10 -10 0 -23 28 4 32 31 5 31 5 32 -5 22z"/>
<path d="M8017 2803 c-4 -3 -7 -11 -7 -17 0 -6 5 -5 12 2 6 6 9 14 7 17 -3 3
-9 2 -12 -2z"/>
<path d="M7835 2780 c-3 -6 1 -7 9 -4 18 7 21 14 7 14 -6 0 -13 -4 -16 -10z"/>
<path d="M7700 2769 c0 -5 5 -7 10 -4 6 3 10 8 10 11 0 2 -4 4 -10 4 -5 0 -10
-5 -10 -11z"/>
<path d="M7931 2737 c-13 -21 -12 -21 5 -5 10 10 16 20 13 22 -3 3 -11 -5 -18
-17z"/>
<path d="M7667 2729 c7 -7 15 -10 18 -7 3 3 -2 9 -12 12 -14 6 -15 5 -6 -5z"/>
<path d="M7900 2696 c0 -2 8 -10 18 -17 15 -13 16 -12 3 4 -13 16 -21 21 -21
13z"/>
<path d="M7560 2680 c-8 -5 -10 -10 -5 -10 6 0 17 5 25 10 8 5 11 10 5 10 -5
0 -17 -5 -25 -10z"/>
<path d="M7526 2662 c-3 -5 1 -9 9 -9 8 0 12 4 9 9 -3 4 -7 8 -9 8 -2 0 -6 -4
-9 -8z"/>
<path d="M7587 2663 c-10 -9 -9 -23 1 -23 5 0 9 7 9 15 0 17 -1 18 -10 8z"/>
<path d="M7930 2655 c-7 -9 -8 -15 -2 -15 5 0 12 7 16 15 3 8 4 15 2 15 -2 0
-9 -7 -16 -15z"/>
<path d="M7901 2644 c0 -11 3 -14 6 -6 3 7 2 16 -1 19 -3 4 -6 -2 -5 -13z"/>
<path d="M7060 2629 c-12 -8 -10 -9 9 -4 16 5 21 4 17 -4 -5 -7 -1 -8 9 -4 13
5 14 7 3 14 -17 11 -20 11 -38 -2z"/>
<path d="M7135 2620 c3 -5 8 -10 11 -10 2 0 4 5 4 10 0 6 -5 10 -11 10 -5 0
-7 -4 -4 -10z"/>
<path d="M7359 2613 c-13 -15 -12 -15 9 -4 23 12 28 21 13 21 -5 0 -15 -7 -22
-17z"/>
<path d="M7114 2586 c2 -15 6 -29 9 -32 3 -4 5 6 3 20 -1 14 -5 29 -9 32 -3 3
-4 -6 -3 -20z"/>
<path d="M7820 2599 c0 -5 7 -9 15 -9 8 0 15 -6 15 -12 0 -10 2 -10 8 0 5 7
16 10 24 7 9 -4 18 -3 21 2 3 5 -2 9 -11 10 -9 1 -29 3 -44 6 -16 2 -28 0 -28
-4z"/>
<path d="M6970 2590 c-9 -6 -10 -10 -3 -10 6 0 15 5 18 10 8 12 4 12 -15 0z"/>
<path d="M6980 2560 c0 -5 5 -10 11 -10 5 0 7 5 4 10 -3 6 -8 10 -11 10 -2 0
-4 -4 -4 -10z"/>
<path d="M7312 2554 c-7 -8 -8 -14 -3 -14 5 0 18 -3 28 -6 11 -4 14 -3 7 3 -6
4 -13 13 -15 20 -3 8 -8 7 -17 -3z"/>
<path d="M7826 2553 c-6 -14 -5 -15 5 -6 7 7 10 15 7 18 -3 3 -9 -2 -12 -12z"/>
<path d="M7485 2541 c-3 -5 -2 -12 3 -15 5 -3 9 1 9 9 0 17 -3 19 -12 6z"/>
<path d="M7459 2522 c7 -12 10 -26 7 -31 -3 -5 3 -16 14 -26 18 -16 20 -16 20
-2 0 10 -5 17 -11 17 -5 0 -7 4 -4 10 3 5 -4 20 -16 32 l-21 23 11 -23z"/>
<path d="M7834 2516 c-3 -15 -4 -30 0 -33 3 -4 6 1 6 11 0 9 4 15 10 11 5 -3
2 -20 -8 -40 -17 -35 -37 -49 -25 -17 7 16 6 16 -11 0 -9 -10 -21 -18 -26 -18
-5 0 -7 -8 -4 -17 5 -16 3 -15 -10 1 -9 11 -19 17 -22 13 -4 -4 4 -15 17 -26
20 -16 25 -17 32 -5 4 8 6 18 3 23 -4 5 2 7 13 4 13 -3 23 5 38 34 16 32 17
42 7 62 l-13 25 -7 -28z"/>
<path d="M7039 2494 c-5 -15 -8 -29 -5 -31 2 -3 7 6 11 19 4 13 13 26 19 30 8
5 7 8 -2 8 -7 0 -17 -12 -23 -26z"/>
<path d="M7379 2513 c10 -4 8 -9 -10 -19 -15 -9 -18 -13 -8 -14 8 0 21 6 28
13 11 10 13 9 7 -6 -3 -10 -6 -21 -6 -23 0 -3 -5 -2 -11 2 -7 4 -10 1 -7 -6 2
-7 12 -14 21 -16 9 -1 15 2 12 7 -8 13 7 34 25 34 8 0 16 8 18 18 2 11 -3 17
-15 17 -15 0 -15 -2 -3 -10 8 -5 11 -12 8 -16 -4 -4 -19 1 -32 10 -14 9 -29
16 -33 15 -4 0 -2 -3 6 -6z"/>
<path d="M6840 2479 c0 -5 5 -7 10 -4 6 3 10 8 10 11 0 2 -4 4 -10 4 -5 0 -10
-5 -10 -11z"/>
<path d="M6878 2483 c6 -2 18 -2 25 0 6 3 1 5 -13 5 -14 0 -19 -2 -12 -5z"/>
<path d="M7289 2458 l-23 -33 27 24 c30 27 38 12 9 -16 -10 -10 -24 -27 -31
-38 -8 -11 3 -3 23 18 20 21 41 35 46 32 5 -3 11 -1 15 5 3 5 2 10 -4 10 -5 0
-16 7 -25 15 -13 13 -17 11 -37 -17z"/>
<path d="M6795 2440 c3 -9 -4 -26 -15 -38 -14 -15 -17 -22 -7 -22 7 0 20 11
27 25 11 20 11 28 1 38 -10 9 -11 9 -6 -3z"/>
<path d="M7590 2440 c0 -7 -7 -10 -15 -6 -8 3 -15 1 -15 -5 0 -6 -4 -7 -10 -4
-6 3 -7 -1 -3 -10 5 -13 7 -14 14 -3 7 11 11 10 19 -2 14 -22 12 -33 -5 -26
-9 3 -15 0 -15 -9 0 -18 12 -19 29 -2 10 10 15 9 24 -4 7 -9 18 -14 25 -11 9
3 11 -4 7 -25 -5 -21 -4 -24 4 -13 10 13 11 13 11 0 1 -8 10 3 22 25 12 22 28
45 36 51 13 9 11 12 -11 16 -24 5 -26 3 -21 -18 7 -26 -5 -31 -24 -12 -9 9
-15 9 -23 1 -8 -8 -16 -6 -30 8 -22 22 -24 36 -7 41 9 3 9 6 0 12 -7 4 -12 2
-12 -4z"/>
<path d="M7360 2431 c0 -12 28 -22 35 -12 3 5 -2 12 -11 15 -21 8 -24 8 -24
-3z"/>
<path d="M7433 2428 c-26 -13 -30 -25 -8 -25 8 0 15 4 15 9 0 5 5 6 10 3 6 -3
10 1 10 9 0 9 -1 16 -2 15 -2 0 -13 -5 -25 -11z"/>
<path d="M7467 2418 c-4 -12 -2 -25 2 -28 11 -6 9 -60 -1 -60 -4 0 -9 12 -11
28 l-4 27 -2 -28 c-1 -21 4 -30 18 -34 12 -3 17 -12 15 -29 -1 -13 2 -22 7
-18 5 3 9 12 9 20 0 8 5 12 10 9 7 -4 5 -14 -5 -28 -20 -29 -19 -44 3 -24 25
23 55 77 43 77 -6 0 -11 -7 -11 -15 0 -8 -5 -15 -11 -15 -6 0 -8 7 -5 16 5 13
2 15 -13 11 -11 -3 -22 1 -25 8 -3 9 2 12 13 10 14 -2 17 1 14 15 -3 10 0 21
6 24 6 4 11 0 11 -8 0 -9 5 -16 10 -16 17 0 11 24 -14 53 -20 23 -25 25 -30
11 -9 -22 -8 -24 8 -18 13 5 13 1 3 -26 l-12 -31 -8 28 c-4 15 -5 36 -3 46 6
25 -11 21 -17 -5z"/>
<path d="M7710 2430 c0 -5 5 -10 10 -10 6 0 10 5 10 10 0 6 -4 10 -10 10 -5 0
-10 -4 -10 -10z"/>
<path d="M7620 2420 c0 -5 9 -10 20 -10 11 0 20 5 20 10 0 6 -9 10 -20 10 -11
0 -20 -4 -20 -10z"/>
<path d="M6720 2394 c-24 -9 -29 -13 -14 -13 11 -1 29 6 40 14 22 17 20 17
-26 -1z"/>
<path d="M6946 2383 c8 -35 7 -33 19 -19 7 8 5 16 -7 29 -18 17 -18 16 -12
-10z"/>
<path d="M6896 2384 c6 -2 10 -17 9 -32 -2 -19 -1 -20 2 -4 2 12 9 22 15 22 6
0 7 -8 3 -17 -5 -14 -4 -15 6 -6 15 15 -5 43 -30 42 -9 0 -11 -3 -5 -5z"/>
<path d="M7740 2381 c0 -6 5 -13 10 -16 6 -3 10 1 10 9 0 9 -4 16 -10 16 -5 0
-10 -4 -10 -9z"/>
<path d="M6608 2373 c7 -3 16 -2 19 1 4 3 -2 6 -13 5 -11 0 -14 -3 -6 -6z"/>
<path d="M7237 2366 c-3 -8 -2 -18 3 -21 13 -8 24 15 12 27 -6 6 -11 4 -15 -6z"/>
<path d="M7770 2359 c0 -6 7 -17 15 -25 8 -9 15 -13 15 -11 0 3 3 14 6 24 5
15 4 15 -5 3 -9 -13 -11 -13 -11 3 0 9 -4 17 -10 17 -5 0 -10 -5 -10 -11z"/>
<path d="M7295 2341 c-7 -12 12 -24 25 -16 11 7 4 25 -10 25 -5 0 -11 -4 -15
-9z"/>
<path d="M7385 2337 c-5 -12 -15 -17 -26 -14 -11 3 -17 1 -14 -3 3 -5 -1 -11
-7 -13 -7 -3 -3 -6 9 -6 12 -1 25 4 28 9 10 17 45 -9 45 -33 0 -12 -7 -31 -15
-41 -9 -12 -15 -15 -15 -7 0 11 -3 11 -15 1 -9 -7 -18 -10 -22 -6 -3 3 -1 6 5
6 6 0 12 12 14 28 2 19 8 27 21 26 9 -1 17 3 17 8 0 6 -13 8 -32 4 -18 -4 -50
-9 -70 -13 -21 -3 -38 -9 -38 -13 0 -5 16 -4 36 2 25 7 40 6 47 -1 8 -8 4 -11
-13 -12 -14 0 -34 -5 -45 -10 -15 -7 -8 -8 25 -5 25 2 38 2 28 0 -13 -4 -15
-11 -7 -36 10 -37 5 -46 -15 -29 -8 6 -12 21 -9 31 4 16 0 20 -21 20 -14 0
-26 6 -27 13 0 6 -5 3 -10 -8 -7 -15 -8 -10 -4 20 3 29 2 34 -5 20 -8 -19 -9
-19 -9 4 -1 21 2 23 32 18 17 -3 26 -3 19 0 -6 2 -10 8 -7 13 7 11 -39 7 -48
-5 -4 -5 -5 -28 -3 -50 3 -22 3 -32 0 -22 -7 21 -24 23 -24 2 0 -14 12 -19 33
-16 4 0 7 -17 7 -38 0 -22 3 -46 6 -55 3 -9 1 -16 -5 -16 -6 0 -11 7 -11 16 0
8 -4 12 -10 9 -5 -3 -10 1 -10 10 0 9 5 13 10 10 6 -3 10 1 10 10 0 19 -28 50
-37 41 -4 -3 -1 -12 5 -18 8 -8 8 -15 1 -24 -11 -14 -1 -42 24 -62 21 -17 63
14 46 34 -9 11 -3 10 19 -3 23 -13 32 -25 32 -45 0 -14 5 -28 11 -30 7 -2 12
-32 14 -68 3 -103 4 -112 15 -105 6 4 10 -5 10 -19 0 -32 13 -33 40 -3 16 17
20 30 16 57 -4 24 -3 29 3 15 8 -19 8 -19 15 3 4 13 5 26 2 29 -3 3 1 15 9 27
16 22 21 71 7 62 -5 -3 -9 8 -9 24 0 17 4 30 8 30 4 0 10 7 13 16 4 10 2 13
-7 8 -6 -4 -2 3 11 15 27 26 28 41 4 67 -11 11 -26 40 -35 64 l-16 45 5 -40
c4 -28 2 -45 -8 -52 -11 -9 -13 -1 -14 43 0 30 4 54 8 54 4 0 8 5 8 10 0 7 -6
7 -19 0 -14 -7 -21 -6 -24 3 -3 8 -7 6 -12 -6z m92 -127 c3 -11 10 -20 15 -20
5 0 6 -5 2 -11 -4 -8 -9 -7 -15 2 -7 11 -9 11 -9 1 0 -7 -4 -10 -10 -7 -5 3
-10 0 -10 -7 0 -8 -3 -9 -8 -3 -4 6 -17 16 -29 22 -19 11 -21 10 -17 -2 4 -10
0 -15 -15 -15 -12 0 -21 6 -21 16 0 8 5 12 10 9 6 -3 10 -2 10 4 0 6 12 8 30
5 22 -5 31 -2 36 10 8 22 25 20 31 -4z m-172 0 c-3 -5 -13 -10 -21 -10 -8 0
-15 -10 -15 -22 -1 -18 -2 -19 -6 -5 -7 28 4 47 27 47 12 0 18 -4 15 -10z m82
-112 c-3 -8 -6 -5 -6 6 -1 11 2 17 5 13 3 -3 4 -12 1 -19z m-19 -33 c-3 -3 -9
2 -12 12 -6 14 -5 15 5 6 7 -7 10 -15 7 -18z m52 1 c0 -3 -4 -8 -10 -11 -5 -3
-10 -1 -10 4 0 6 5 11 10 11 6 0 10 -2 10 -4z m-43 -68 c-3 -7 -5 -2 -5 12 0
14 2 19 5 13 2 -7 2 -19 0 -25z m43 -20 c0 -36 -4 -35 -14 5 -4 16 -2 27 4 27
5 0 10 -14 10 -32z"/>
<path d="M7447 2196 c-4 -10 -1 -13 9 -9 7 3 14 9 14 14 0 14 -17 10 -23 -5z"/>
<path d="M6555 2320 c-3 -6 1 -7 9 -4 18 7 21 14 7 14 -6 0 -13 -4 -16 -10z"/>
<path d="M6875 2320 c-3 -5 -1 -10 4 -10 6 0 11 5 11 10 0 6 -2 10 -4 10 -3 0
-8 -4 -11 -10z"/>
<path d="M6440 2316 c0 -9 30 -14 35 -6 4 6 -3 10 -14 10 -12 0 -21 -2 -21 -4z"/>
<path d="M6846 2302 c-3 -5 1 -9 9 -9 8 0 12 4 9 9 -3 4 -7 8 -9 8 -2 0 -6 -4
-9 -8z"/>
<path d="M6894 2299 c-3 -6 -2 -15 3 -20 5 -5 9 -1 9 11 0 23 -2 24 -12 9z"/>
<path d="M7650 2290 c0 -5 5 -10 11 -10 5 0 7 5 4 10 -3 6 -8 10 -11 10 -2 0
-4 -4 -4 -10z"/>
<path d="M7840 2264 c0 -8 -4 -12 -10 -9 -6 3 -7 -1 -4 -9 9 -25 24 -19 24 9
0 14 -2 25 -5 25 -3 0 -5 -7 -5 -16z"/>
<path d="M6448 2263 c7 -3 16 -2 19 1 4 3 -2 6 -13 5 -11 0 -14 -3 -6 -6z"/>
<path d="M6881 2254 c0 -11 3 -14 6 -6 3 7 2 16 -1 19 -3 4 -6 -2 -5 -13z"/>
<path d="M7380 2260 c0 -5 5 -10 10 -10 6 0 10 5 10 10 0 6 -4 10 -10 10 -5 0
-10 -4 -10 -10z"/>
<path d="M7950 2260 c0 -5 4 -10 9 -10 5 0 18 -3 28 -7 16 -6 16 -5 4 10 -15
19 -41 23 -41 7z"/>
<path d="M6847 2232 c1 -8 3 -16 3 -18 0 -3 5 -2 10 1 6 3 10 2 10 -4 0 -19
-19 -21 -29 -4 -14 24 -14 10 1 -21 11 -25 11 -26 25 -6 14 20 9 65 -7 55 -5
-3 -10 -2 -13 2 -2 5 -2 2 0 -5z"/>
<path d="M7770 2226 c0 -2 7 -9 15 -16 13 -11 14 -10 9 4 -5 14 -24 23 -24 12z"/>
<path d="M6671 2183 c0 -6 -4 -20 -7 -30 -5 -14 -4 -15 5 -7 7 7 11 20 8 30
-3 11 -5 14 -6 7z"/>
<path d="M7977 2174 c5 -14 2 -16 -23 -11 -32 6 -64 -7 -64 -26 0 -7 -11 -25
-25 -41 -25 -29 -33 -56 -16 -56 5 0 7 -10 3 -22 -4 -19 -3 -21 9 -12 24 20
91 55 85 45 -4 -5 -2 -12 3 -16 5 -3 15 3 21 12 9 15 10 13 5 -10 -5 -25 -4
-27 14 -18 19 11 23 20 34 71 6 27 -16 66 -31 56 -6 -3 -8 2 -5 13 3 10 0 22
-6 25 -7 5 -8 1 -4 -10z"/>
<path d="M6778 2163 c20 -4 21 -7 10 -20 -12 -15 -11 -15 11 -4 19 10 21 15
10 22 -8 5 -23 8 -34 7 -17 -1 -16 -1 3 -5z"/>
<path d="M6684 2139 c-4 -7 -3 -9 4 -5 5 3 13 0 15 -6 4 -9 6 -10 6 -1 1 17
-16 25 -25 12z"/>
<path d="M6719 2119 c-8 -15 -8 -19 0 -15 6 4 12 2 12 -3 1 -6 2 -17 3 -23 1
-7 8 -12 14 -10 7 1 12 -5 10 -15 -2 -10 4 -19 15 -21 9 -2 17 2 17 8 0 6 -5
8 -12 4 -7 -4 -8 -3 -4 4 4 6 -3 21 -15 33 -17 17 -19 23 -8 31 11 7 9 8 -5 4
-13 -5 -17 -2 -12 9 8 22 -2 18 -15 -6z"/>
<path d="M6765 2090 c3 -5 8 -10 11 -10 2 0 4 5 4 10 0 6 -5 10 -11 10 -5 0
-7 -4 -4 -10z"/>
<path d="M6815 2040 c-3 -6 2 -13 12 -17 10 -3 21 -8 26 -10 4 -2 7 1 7 6 0 6
-9 11 -21 11 -11 0 -17 5 -14 10 3 6 4 10 1 10 -3 0 -8 -5 -11 -10z"/>
<path d="M6948 2022 c-10 -2 -18 -7 -18 -12 0 -5 -3 -17 -6 -27 -5 -15 -4 -15
5 -3 12 18 22 10 25 -24 2 -15 -1 -23 -7 -19 -7 4 -8 0 -3 -12 5 -15 4 -16 -8
-5 -14 11 -14 14 -1 27 20 19 19 25 -2 21 -14 -2 -18 3 -16 26 2 22 -1 26 -9
18 -8 -8 -9 -24 -1 -57 6 -25 6 -45 2 -45 -5 0 -9 10 -10 23 -1 18 -2 17 -10
-8 -6 -21 -4 -40 8 -67 16 -35 25 -43 46 -39 5 1 6 -2 4 -6 -3 -5 -8 -54 -11
-110 -4 -57 -9 -110 -12 -118 -10 -24 5 -65 22 -65 13 0 14 3 5 13 -6 8 -8 16
-5 19 3 3 7 23 10 44 3 21 14 49 26 61 12 13 19 26 16 29 -4 3 2 14 12 24 11
11 24 37 30 59 6 22 17 44 26 49 8 4 18 30 23 58 5 27 12 58 16 69 5 16 5 17
-4 5 -9 -13 -11 -13 -11 1 0 11 -9 17 -27 17 -14 0 -31 6 -37 13 -18 23 -60
45 -78 41z m27 -22 c3 -5 2 -10 -4 -10 -5 0 -13 5 -16 10 -3 6 -2 10 4 10 5 0
13 -4 16 -10z m15 -50 c0 -5 -4 -10 -10 -10 -5 0 -10 5 -10 10 0 6 5 10 10 10
6 0 10 -4 10 -10z m27 -122 c-3 -8 -6 -5 -6 6 -1 11 2 17 5 13 3 -3 4 -12 1
-19z m37 7 c-4 -8 -8 -15 -10 -15 -2 0 -4 7 -4 15 0 8 4 15 10 15 5 0 7 -7 4
-15z m-67 -57 c-3 -8 -6 -5 -6 6 -1 11 2 17 5 13 3 -3 4 -12 1 -19z"/>
<path d="M7512 2005 c-15 -33 -15 -55 -1 -55 6 0 8 7 5 16 -3 8 -1 25 5 36 6
11 9 22 6 24 -2 2 -9 -7 -15 -21z"/>
<path d="M0 2737 l0 -44 458 -143 c251 -79 479 -150 506 -158 l48 -14 -4 -85
c-3 -54 -9 -88 -17 -93 -11 -6 -11 -8 0 -12 10 -3 9 -63 -5 -319 -40 -730 -47
-834 -57 -844 -7 -7 -9 -5 -7 5 2 9 -10 18 -32 26 -36 12 -55 44 -26 44 27 0
17 14 -27 39 -23 12 -65 35 -92 51 -28 15 -66 31 -85 35 -19 4 -56 18 -82 30
-54 26 -141 49 -160 43 -7 -3 -41 10 -75 29 -44 23 -75 33 -107 33 -25 0 -48
5 -51 10 -3 6 -19 10 -36 10 -16 0 -37 4 -47 10 -9 5 -36 16 -60 24 l-42 14 0
-572 0 -571 70 -26 70 -26 28 21 c16 11 37 29 46 39 10 9 20 17 24 17 4 0 24
16 44 35 68 61 241 190 252 187 6 -2 8 -1 4 3 -7 8 15 35 28 35 4 0 16 7 26
17 10 9 18 12 18 7 0 -5 26 -8 58 -7 40 1 62 -3 74 -14 16 -14 20 -14 35 -1
10 8 25 17 33 20 9 3 46 29 83 57 36 28 68 51 71 51 12 0 72 68 68 78 -2 7 -8
10 -13 6 -6 -3 -8 18 -5 53 6 77 15 224 21 348 2 55 19 358 36 673 17 315 29
575 26 578 -3 3 -63 24 -134 46 -325 101 -456 142 -693 217 -140 45 -258 81
-262 81 -5 0 -8 -20 -8 -43z"/>
<path d="M120 2453 c0 -12 3 -14 8 -7 4 7 16 14 27 17 15 4 14 5 -7 6 -21 1
-28 -4 -28 -16z"/>
<path d="M180 2455 c0 -8 4 -15 10 -15 5 0 7 7 4 15 -4 8 -8 15 -10 15 -2 0
-4 -7 -4 -15z"/>
<path d="M89 2433 c-13 -16 -12 -17 4 -4 16 13 21 21 13 21 -2 0 -10 -8 -17
-17z"/>
<path d="M194 2419 c-3 -6 -1 -15 6 -19 9 -6 8 -10 -6 -19 -11 -6 -14 -11 -7
-11 6 0 14 4 17 9 3 5 16 7 28 3 15 -4 19 -2 14 7 -5 7 -10 10 -13 7 -7 -7
-32 17 -26 27 2 4 2 7 -1 7 -3 0 -8 -5 -12 -11z"/>
<path d="M330 2400 c0 -5 5 -10 11 -10 5 0 7 5 4 10 -3 6 -8 10 -11 10 -2 0
-4 -4 -4 -10z"/>
<path d="M3440 2389 c-437 -3 -817 -7 -844 -8 l-49 -1 7 -687 c4 -379 7 -845
8 -1038 0 -192 4 -336 8 -320 l8 30 2 -35 c1 -29 3 -32 10 -15 8 18 9 18 10
-5 1 -17 3 -20 8 -10 8 17 33 20 44 5 4 -5 8 1 8 15 0 25 59 90 82 90 7 0 3
-7 -8 -15 -13 -11 -14 -13 -3 -9 23 7 29 -39 29 -229 l0 -158 1122 3 1123 3 1
74 c0 43 -3 66 -7 55 -6 -16 -8 -15 -8 8 -1 14 -4 35 -8 45 -6 16 -5 16 10 4
15 -12 17 -11 16 5 -1 11 -1 33 -1 51 2 26 5 31 19 26 13 -5 15 -2 10 11 -4
10 -3 15 3 11 6 -3 13 0 16 8 3 8 13 17 23 20 20 5 26 26 41 145 6 46 7 104 1
155 -6 54 -5 260 4 602 8 286 17 667 21 848 l7 327 -459 -2 c-252 -1 -817 -5
-1254 -9z m1616 -181 c-3 -57 -8 -233 -11 -393 -10 -554 -17 -840 -19 -850 -4
-13 -116 -7 -116 6 0 5 11 15 26 21 25 11 24 12 -23 24 -80 20 -170 27 -343
26 -129 0 -173 -3 -203 -16 -25 -11 -43 -13 -55 -8 -34 18 -128 22 -168 9 -22
-8 -86 -15 -144 -16 -167 -3 -212 -9 -304 -41 -93 -32 -128 -36 -205 -19 l-49
10 2 45 c1 24 -1 44 -4 44 -4 0 -17 -11 -29 -24 -13 -14 -29 -22 -37 -19 -8 3
-14 -1 -14 -11 0 -14 -14 -16 -95 -16 -52 0 -95 -4 -95 -9 0 -5 -46 -8 -102
-8 -66 0 -146 -7 -220 -21 -64 -12 -133 -22 -152 -22 l-35 0 -3 133 c-2 72 -5
278 -6 457 -1 179 -5 382 -9 453 -5 103 -3 127 8 127 10 0 10 3 1 12 -8 8 -12
45 -12 100 l0 88 123 0 c301 0 1522 13 1526 16 2 2 177 4 388 4 l384 0 -5
-102z m-59 -1870 c-3 -8 -6 -5 -6 6 -1 11 2 17 5 13 3 -3 4 -12 1 -19z m-20
-30 c-3 -7 -5 -2 -5 12 0 14 2 19 5 13 2 -7 2 -19 0 -25z"/>
<path d="M3318 2219 c13 -5 30 -5 38 -1 9 5 1 8 -23 9 -33 1 -35 0 -15 -8z"/>
<path d="M3553 2223 c9 -2 23 -2 30 0 6 3 -1 5 -18 5 -16 0 -22 -2 -12 -5z"/>
<path d="M4528 2183 c7 -3 16 -2 19 1 4 3 -2 6 -13 5 -11 0 -14 -3 -6 -6z"/>
<path d="M4317 2141 c-4 -17 -3 -21 5 -13 5 5 8 16 6 23 -3 8 -7 3 -11 -10z"/>
<path d="M4595 2150 c27 -12 43 -12 25 0 -8 5 -22 9 -30 9 -10 0 -8 -3 5 -9z"/>
<path d="M4358 2143 c7 -3 16 -2 19 1 4 3 -2 6 -13 5 -11 0 -14 -3 -6 -6z"/>
<path d="M4735 2140 c-3 -6 1 -7 9 -4 18 7 21 14 7 14 -6 0 -13 -4 -16 -10z"/>
<path d="M4890 2140 c0 -6 7 -10 15 -10 8 0 15 2 15 4 0 2 -7 6 -15 10 -8 3
-15 1 -15 -4z"/>
<path d="M4018 2133 c7 -3 16 -2 19 1 4 3 -2 6 -13 5 -11 0 -14 -3 -6 -6z"/>
<path d="M4538 2133 c6 -2 18 -2 25 0 6 3 1 5 -13 5 -14 0 -19 -2 -12 -5z"/>
<path d="M5008 2133 c6 -2 18 -2 25 0 6 3 1 5 -13 5 -14 0 -19 -2 -12 -5z"/>
<path d="M4930 2120 c0 -5 -6 -10 -13 -10 -8 0 -22 -10 -33 -22 -19 -23 -19
-23 1 -7 11 9 28 19 38 22 15 6 25 27 12 27 -3 0 -5 -4 -5 -10z"/>
<path d="M3965 2110 c-28 -7 -28 -8 -5 -9 14 0 32 4 40 9 17 11 8 11 -35 0z"/>
<path d="M3523 2095 c-7 -8 -9 -16 -4 -19 5 -3 12 1 15 10 8 22 4 25 -11 9z"/>
<path d="M3560 2095 c0 -8 2 -15 4 -15 2 0 6 7 10 15 3 8 1 15 -4 15 -6 0 -10
-7 -10 -15z"/>
<path d="M3158 2078 c-14 -14 -15 -18 -4 -18 8 0 17 7 20 16 9 23 4 24 -16 2z"/>
<path d="M3375 2090 c27 -12 43 -12 25 0 -8 5 -22 9 -30 9 -10 0 -8 -3 5 -9z"/>
<path d="M4148 2093 c6 -2 18 -2 25 0 6 3 1 5 -13 5 -14 0 -19 -2 -12 -5z"/>
<path d="M4823 2093 c9 -2 23 -2 30 0 6 3 -1 5 -18 5 -16 0 -22 -2 -12 -5z"/>
<path d="M2748 2083 c7 -3 16 -2 19 1 4 3 -2 6 -13 5 -11 0 -14 -3 -6 -6z"/>
<path d="M3930 2080 c0 -5 5 -10 11 -10 5 0 7 5 4 10 -3 6 -8 10 -11 10 -2 0
-4 -4 -4 -10z"/>
<path d="M4014 2075 c-10 -8 -14 -15 -8 -15 6 0 17 7 24 15 16 19 9 19 -16 0z"/>
<path d="M4054 2074 c-18 -14 -18 -15 4 -4 12 6 22 13 22 15 0 8 -5 6 -26 -11z"/>
<path d="M3895 2060 c-3 -5 1 -10 9 -10 9 0 16 5 16 10 0 6 -4 10 -9 10 -6 0
-13 -4 -16 -10z"/>
<path d="M3346 2053 c-11 -11 -6 -23 9 -23 8 0 15 4 15 9 0 13 -16 22 -24 14z"/>
<path d="M4078 2053 c6 -2 18 -2 25 0 6 3 1 5 -13 5 -14 0 -19 -2 -12 -5z"/>
<path d="M4040 2040 c0 -5 5 -10 10 -10 6 0 10 5 10 10 0 6 -4 10 -10 10 -5 0
-10 -4 -10 -10z"/>
<path d="M4915 2041 c-3 -6 -11 -9 -16 -6 -5 4 -9 -1 -9 -9 0 -9 3 -16 6 -16
10 0 37 31 31 36 -3 3 -8 0 -12 -5z"/>
<path d="M3417 2029 c7 -7 15 -10 18 -7 3 3 -2 9 -12 12 -14 6 -15 5 -6 -5z"/>
<path d="M4710 2034 c0 -17 27 -37 42 -31 8 4 7 6 -4 6 -9 1 -22 9 -27 19 -6
9 -11 12 -11 6z"/>
<path d="M3815 2020 c3 -5 8 -10 11 -10 2 0 4 5 4 10 0 6 -5 10 -11 10 -5 0
-7 -4 -4 -10z"/>
<path d="M4000 2020 c-13 -8 -12 -10 3 -10 9 0 17 5 17 10 0 12 -1 12 -20 0z"/>
<path d="M3404 2004 c9 -8 14 -20 11 -25 -4 -5 1 -6 9 -3 12 5 12 8 -2 25 -9
10 -20 19 -25 19 -5 0 -1 -7 7 -16z"/>
<path d="M3348 2003 c7 -3 16 -2 19 1 4 3 -2 6 -13 5 -11 0 -14 -3 -6 -6z"/>
<path d="M3910 2000 c0 -5 5 -10 11 -10 5 0 7 5 4 10 -3 6 -8 10 -11 10 -2 0
-4 -4 -4 -10z"/>
<path d="M4770 1999 c0 -5 5 -7 10 -4 6 3 10 8 10 11 0 2 -4 4 -10 4 -5 0 -10
-5 -10 -11z"/>
<path d="M4000 1978 c0 -19 -2 -20 -11 -8 -9 13 -10 13 -8 0 3 -28 -1 -40 -12
-40 -6 0 -9 6 -6 14 3 8 -1 13 -11 12 -9 0 -16 4 -15 10 1 7 -6 10 -17 7 -22
-6 -26 -18 -10 -28 6 -3 10 -1 10 5 0 6 16 -2 37 -19 28 -23 40 -28 55 -20 19
10 25 29 8 29 -15 0 -12 47 3 53 7 3 5 6 -5 6 -12 1 -18 -6 -18 -21z m16 -55
c-7 -7 -26 7 -26 19 0 6 6 6 15 -2 9 -7 13 -15 11 -17z"/>
<path d="M3000 1979 c0 -5 5 -7 10 -4 6 3 10 8 10 11 0 2 -4 4 -10 4 -5 0 -10
-5 -10 -11z"/>
<path d="M3375 1970 c-16 -17 -16 -20 -3 -15 9 4 19 13 22 21 7 19 2 18 -19
-6z"/>
<path d="M4025 1970 c-3 -5 -2 -10 4 -10 5 0 13 5 16 10 3 6 2 10 -4 10 -5 0
-13 -4 -16 -10z"/>
<path d="M4755 1970 c4 -6 11 -8 16 -5 14 9 11 15 -7 15 -8 0 -12 -5 -9 -10z"/>
<path d="M3852 1961 c-11 -7 -11 -9 2 -14 10 -4 16 -1 16 8 0 17 -1 17 -18 6z"/>
<path d="M4651 1954 c0 -11 3 -14 6 -6 3 7 2 16 -1 19 -3 4 -6 -2 -5 -13z"/>
<path d="M4720 1954 c8 -10 15 -20 16 -22 1 -2 4 1 7 5 3 5 -4 15 -16 23 -21
12 -21 12 -7 -6z"/>
<path d="M3046 1945 c-9 -26 -7 -32 5 -12 6 10 9 21 6 23 -2 3 -7 -2 -11 -11z"/>
<path d="M4685 1950 c-3 -5 -1 -10 4 -10 6 0 11 5 11 10 0 6 -2 10 -4 10 -3 0
-8 -4 -11 -10z"/>
<path d="M4115 1941 c-6 -11 13 -26 22 -17 4 3 1 6 -6 6 -7 0 -9 5 -6 10 3 6
4 10 1 10 -3 0 -7 -4 -11 -9z"/>
<path d="M3351 1923 c7 -12 15 -20 18 -17 3 2 -3 12 -13 22 -17 16 -18 16 -5
-5z"/>
<path d="M3880 1929 c0 -5 5 -7 10 -4 6 3 10 8 10 11 0 2 -4 4 -10 4 -5 0 -10
-5 -10 -11z"/>
<path d="M4611 1924 c0 -11 3 -14 6 -6 3 7 2 16 -1 19 -3 4 -6 -2 -5 -13z"/>
<path d="M3845 1919 c-11 -16 -1 -19 13 -3 7 8 8 14 3 14 -5 0 -13 -5 -16 -11z"/>
<path d="M3066 1896 c-3 -13 -9 -32 -12 -43 -5 -12 -4 -15 3 -8 11 10 28 75
20 75 -3 0 -8 -11 -11 -24z"/>
<path d="M3337 1903 c-4 -3 -7 -11 -7 -17 0 -6 5 -5 12 2 6 6 9 14 7 17 -3 3
-9 2 -12 -2z"/>
<path d="M3803 1889 c-1 -11 5 -19 13 -19 18 0 19 26 1 33 -8 3 -14 -3 -14
-14z"/>
<path d="M3027 1879 c4 -13 8 -18 11 -10 2 7 -1 18 -6 23 -8 8 -9 4 -5 -13z"/>
<path d="M4052 1892 c-21 -7 -13 -19 11 -18 12 1 28 -2 35 -7 8 -7 12 -5 12 6
0 8 5 17 12 19 6 2 -5 4 -24 4 -19 0 -40 -2 -46 -4z"/>
<path d="M3276 1859 c-24 -23 -10 -26 16 -2 10 9 21 13 26 9 4 -4 -2 -14 -12
-22 -11 -8 -15 -14 -9 -14 16 0 36 28 28 40 -9 15 -28 11 -49 -11z"/>
<path d="M4140 1867 c0 -9 5 -17 11 -17 7 0 9 -10 5 -26 -4 -14 -2 -32 4 -39
7 -9 7 -15 1 -19 -5 -4 -14 2 -20 11 -5 10 -13 15 -16 11 -4 -4 3 -17 14 -29
12 -13 19 -30 16 -39 -5 -12 -4 -13 6 -2 18 17 29 15 22 -5 -6 -14 -4 -15 8
-5 8 7 23 19 34 27 17 13 18 16 5 24 -10 7 -22 5 -38 -5 -13 -9 -27 -13 -30
-9 -4 3 0 10 7 14 10 6 11 14 3 26 -5 10 -7 26 -5 36 3 10 -2 28 -11 41 -13
18 -16 19 -16 5z m72 -129 c-6 -6 -15 -8 -19 -4 -4 4 -1 11 7 16 19 12 27 3
12 -12z"/>
<path d="M3080 1860 c0 -10 22 -33 52 -54 19 -13 19 -17 7 -32 -12 -16 -12
-17 5 -11 14 6 17 4 12 -8 -3 -8 -3 -22 0 -30 5 -11 9 -12 19 -2 7 7 11 16 8
21 -3 4 -9 2 -14 -5 -7 -11 -9 -11 -9 -1 0 7 7 15 15 18 8 4 12 10 9 15 -3 5
-10 6 -16 3 -7 -5 -9 0 -6 14 4 12 2 20 -3 17 -5 -4 -25 10 -44 29 -19 20 -35
31 -35 26z"/>
<path d="M3832 1843 c-18 -7 -38 -24 -44 -38 -6 -14 -14 -25 -18 -25 -4 0 -5
-22 -2 -50 3 -34 1 -50 -7 -50 -8 0 -9 13 -5 42 5 30 4 39 -4 34 -17 -10 -15
-62 5 -99 l17 -32 8 45 c5 25 6 60 3 78 -4 19 -2 32 5 32 5 0 10 9 10 20 0 13
10 24 26 30 40 16 51 11 24 -9 -13 -11 -29 -17 -34 -14 -5 4 -7 -1 -3 -10 3
-10 2 -17 -3 -17 -6 0 -9 -21 -8 -47 l1 -48 7 45 8 45 -2 -45 c-1 -30 -5 -44
-13 -42 -8 1 -13 -9 -13 -25 0 -22 2 -25 10 -13 6 9 10 10 10 3 0 -6 -4 -15
-10 -18 -18 -11 -10 -23 15 -21 14 0 25 5 25 9 0 5 14 6 30 2 26 -6 30 -4 30
16 0 40 9 15 14 -40 4 -51 16 -84 16 -46 0 12 3 15 9 10 5 -6 5 -38 1 -74 -5
-35 -5 -73 0 -85 4 -12 14 -40 21 -63 13 -46 37 -56 71 -29 20 15 42 64 39 88
-1 9 8 23 20 31 19 14 21 22 15 60 -6 41 -4 48 34 98 43 57 49 72 25 63 -8 -4
-12 -11 -9 -18 3 -6 -3 -1 -14 12 -11 12 -22 28 -25 35 -2 7 -8 8 -13 3 -5 -5
-4 -11 4 -13 16 -6 15 -38 -2 -52 -11 -9 -15 -8 -20 5 -9 23 -7 31 4 14 5 -8
12 -11 16 -8 4 4 0 18 -9 31 -10 15 -12 29 -6 39 7 13 5 15 -11 11 -14 -4 -20
0 -20 11 0 9 -7 19 -15 22 -22 9 -18 23 5 17 11 -3 20 -12 20 -19 0 -8 5 -14
10 -14 13 0 12 11 -3 31 -7 9 -17 14 -23 12 -6 -2 -14 4 -18 13 -8 22 2 33 14
14 8 -13 10 -12 10 3 0 19 -17 22 -40 6 -11 -8 -12 -12 -2 -16 18 -7 15 -21
-7 -28 -22 -7 -18 -35 5 -35 17 0 19 -17 2 -22 -6 -2 -12 -15 -14 -29 -1 -13
-3 -26 -3 -29 -1 -7 -51 -11 -51 -5 0 3 7 17 16 30 15 23 15 27 0 50 -17 26
-21 46 -8 44 23 -4 52 2 52 11 0 6 -12 8 -27 5 -26 -5 -26 -5 -5 4 27 13 28
20 2 18 -11 -1 -22 -8 -25 -16 -5 -14 -7 -14 -16 -1 -6 10 -7 4 -4 -20 5 -33
5 -33 -6 -10 -7 14 -11 36 -10 49 2 14 -1 21 -8 17 -6 -4 -11 -3 -11 1 0 21
-36 30 -68 16z m69 -29 c10 -13 10 -17 -2 -25 -8 -5 -18 -9 -24 -9 -5 0 -3 4
5 10 8 5 11 12 7 17 -5 4 -12 1 -17 -7 -7 -12 -12 -12 -22 -2 -9 9 -9 12 5 12
9 0 17 5 17 10 0 15 16 12 31 -6z m-31 -45 c0 -5 -9 -9 -20 -9 -19 0 -26 11
-14 23 8 8 34 -3 34 -14z m46 -26 c-3 -4 -6 -1 -6 7 0 9 -4 10 -13 2 -7 -6
-25 -15 -40 -21 -22 -9 -27 -8 -27 5 0 8 4 13 8 10 5 -3 22 3 38 13 25 15 30
16 37 4 5 -8 6 -17 3 -20z m144 -42 c0 -5 -8 -12 -17 -15 -15 -6 -15 -8 -3
-16 9 -6 18 -5 23 3 6 8 7 5 3 -7 -4 -10 -1 -25 5 -33 7 -7 8 -17 4 -21 -4 -4
-14 3 -22 16 -9 12 -21 22 -28 22 -16 0 -12 39 6 51 18 11 29 11 29 0z m-220
-33 c0 6 4 12 10 12 6 0 5 -10 -2 -25 -15 -32 -25 -32 -25 1 0 18 2 22 8 13 6
-10 9 -11 9 -1z m45 -18 c-3 -5 -12 -10 -18 -10 -7 0 -6 4 3 10 19 12 23 12
15 0z m55 -16 c0 -14 -4 -23 -9 -20 -5 3 -7 15 -4 26 7 28 13 25 13 -6z m40
-8 c0 -2 -7 -6 -15 -10 -8 -3 -15 -1 -15 4 0 6 7 10 15 10 8 0 15 -2 15 -4z
m150 -21 c-7 -9 -15 -13 -17 -11 -7 7 7 26 19 26 6 0 6 -6 -2 -15z m-156 -12
c-5 -5 -12 -12 -16 -18 -4 -6 -8 -2 -8 8 0 9 7 17 17 17 9 0 12 -3 7 -7z m113
-80 c-3 -10 -5 -4 -5 12 0 17 2 24 5 18 2 -7 2 -21 0 -30z m-124 -3 c3 -11 1
-18 -4 -14 -5 3 -9 12 -9 20 0 20 7 17 13 -6z"/>
<path d="M4192 1835 c-2 -24 9 -41 26 -40 13 0 16 9 9 28 -4 9 -6 9 -6 0 -2
-22 -19 -14 -24 10 -4 19 -4 19 -5 2z"/>
<path d="M4086 1823 c-6 -14 -5 -15 5 -6 7 7 10 15 7 18 -3 3 -9 -2 -12 -12z"/>
<path d="M4132 1820 c0 -14 2 -19 5 -12 2 6 2 18 0 25 -3 6 -5 1 -5 -13z"/>
<path d="M3240 1814 c0 -14 3 -15 18 -3 9 7 19 15 21 16 2 2 -5 3 -17 3 -14 0
-22 -6 -22 -16z"/>
<path d="M4610 1812 c6 -12 8 -27 5 -32 -3 -6 -2 -10 4 -10 14 0 35 40 25 48
-4 4 -9 1 -11 -6 -4 -10 -9 -8 -20 5 -13 17 -13 16 -3 -5z"/>
<path d="M4102 1800 c-6 -11 -8 -21 -3 -25 5 -3 13 4 16 16 9 28 2 33 -13 9z"/>
<path d="M4400 1806 c5 -5 10 -14 10 -20 0 -5 -3 -7 -6 -3 -4 3 -15 -4 -25
-16 -15 -17 -20 -19 -27 -9 -5 8 -18 12 -28 9 -17 -4 -17 -6 3 -12 13 -4 20
-11 17 -16 -8 -13 10 -11 24 3 9 9 12 8 12 -5 0 -10 -8 -17 -19 -17 -17 0 -18
-4 -8 -42 8 -34 12 -38 18 -22 11 27 11 36 -1 29 -5 -3 -10 -3 -10 1 0 11 73
74 87 74 20 0 37 40 22 54 -8 7 -10 7 -6 0 4 -6 -5 -22 -18 -34 l-25 -23 -1
24 c-1 13 -1 27 -1 30 1 3 -6 6 -14 6 -10 0 -11 -4 -4 -11z m5 -46 c3 -5 1
-10 -4 -10 -6 0 -11 5 -11 10 0 6 2 10 4 10 3 0 8 -4 11 -10z"/>
<path d="M4437 1813 c-4 -3 -7 -11 -7 -17 0 -6 5 -5 12 2 6 6 9 14 7 17 -3 3
-9 2 -12 -2z"/>
<path d="M4530 1791 c-10 -26 -15 -29 -27 -19 -11 9 -16 9 -24 -3 -5 -8 -8
-18 -8 -24 0 -5 3 -4 6 3 2 6 9 12 15 12 6 0 8 -7 5 -14 -4 -10 -1 -13 9 -9 7
3 14 8 14 12 0 4 9 16 19 28 11 11 16 25 11 32 -4 8 -11 2 -20 -18z"/>
<path d="M4574 1808 c2 -7 -4 -22 -14 -33 -22 -25 -33 -85 -20 -105 9 -13 11
-13 19 -1 6 9 6 22 0 32 -15 28 -11 45 16 70 24 23 35 46 16 35 -5 -4 -12 -1
-14 4 -3 6 -4 5 -3 -2z m-19 -118 c3 -5 1 -10 -4 -10 -6 0 -11 5 -11 10 0 6 2
10 4 10 3 0 8 -4 11 -10z"/>
<path d="M3185 1801 c-9 -16 9 -20 23 -5 10 12 10 14 -2 14 -8 0 -17 -4 -21
-9z"/>
<path d="M4500 1801 c0 -5 5 -13 10 -16 6 -3 10 -2 10 4 0 5 -4 13 -10 16 -5
3 -10 2 -10 -4z"/>
<path d="M4255 1790 c-3 -6 1 -7 9 -4 18 7 21 14 7 14 -6 0 -13 -4 -16 -10z"/>
<path d="M4360 1790 c-9 -6 -10 -10 -3 -10 6 0 15 5 18 10 8 12 4 12 -15 0z"/>
<path d="M4110 1752 c0 -5 7 -15 15 -22 8 -7 15 -9 15 -6 0 4 -7 14 -15 22 -8
9 -15 11 -15 6z"/>
<path d="M3180 1710 c0 -5 6 -10 13 -10 7 0 29 -9 50 -19 20 -10 37 -15 37
-11 0 7 -82 50 -95 50 -3 0 -5 -4 -5 -10z"/>
<path d="M4500 1699 c0 -11 5 -17 10 -14 6 3 10 13 10 21 0 8 -4 14 -10 14 -5
0 -10 -9 -10 -21z"/>
<path d="M4145 1690 c4 -6 11 -8 16 -5 14 9 11 15 -7 15 -8 0 -12 -5 -9 -10z"/>
<path d="M3342 1630 c-7 -12 -8 -20 -2 -20 17 0 11 -25 -10 -38 -11 -7 -20
-17 -20 -23 0 -5 5 -7 10 -4 7 4 9 -2 4 -19 -4 -16 -2 -26 5 -26 6 0 10 -3 9
-7 -2 -14 16 -48 34 -63 17 -14 17 -20 2 -104 -12 -70 -13 -91 -3 -97 9 -5 8
-11 -4 -24 -23 -22 -21 -62 2 -75 26 -13 31 -13 25 4 -10 26 16 92 46 119 16
15 30 32 30 38 0 5 5 7 11 4 6 -4 13 2 16 14 3 12 9 21 14 21 5 0 9 8 9 18 0
9 13 24 29 33 29 17 46 63 35 96 -4 14 -3 15 4 5 7 -11 10 -10 16 3 8 21 -10
45 -35 45 -9 0 -24 7 -33 15 -8 9 -19 14 -23 13 -4 -2 -9 7 -11 20 -2 12 -9
22 -16 22 -7 0 -25 9 -39 20 -45 36 -100 14 -58 -24 20 -18 41 -21 41 -6 0 6
-7 10 -15 10 -8 0 -15 5 -15 10 0 6 2 10 5 10 10 0 75 -34 75 -39 0 -3 -17 -7
-38 -9 -44 -3 -78 20 -84 56 -3 23 -3 23 -16 2z m28 -64 c0 -2 -7 -6 -15 -10
-8 -3 -15 -1 -15 4 0 6 7 10 15 10 8 0 15 -2 15 -4z m154 -42 c3 -8 2 -12 -4
-9 -6 3 -10 10 -10 16 0 14 7 11 14 -7z"/>
<path d="M4612 1608 c-7 -7 -12 -19 -12 -27 0 -14 -1 -14 -10 -1 -5 8 -10 11
-10 5 0 -31 36 -43 43 -15 3 11 0 20 -6 20 -7 0 -6 4 3 10 8 5 12 11 9 14 -3
3 -11 0 -17 -6z"/>
<path d="M4525 1550 c3 -5 8 -10 11 -10 2 0 4 5 4 10 0 6 -5 10 -11 10 -5 0
-7 -4 -4 -10z"/>
<path d="M4760 1550 c0 -5 7 -10 15 -10 9 0 12 -6 8 -17 -4 -11 -3 -14 5 -9
18 11 15 24 -8 36 -14 7 -20 7 -20 0z"/>
<path d="M4720 1470 c0 -6 -11 -15 -25 -20 -14 -5 -28 -17 -31 -25 -4 -8 -14
-15 -24 -15 -28 0 -39 -22 -33 -68 6 -46 7 -46 80 -17 27 11 34 11 44 -1 7 -8
18 -13 26 -10 7 3 13 -1 13 -8 0 -20 25 -37 44 -30 9 3 16 12 16 19 0 7 7 18
15 25 8 7 15 21 15 32 0 10 -7 21 -15 24 -8 4 -15 12 -15 19 0 7 -6 15 -14 18
-8 3 -16 16 -19 29 l-4 23 -2 -23 c-1 -22 -2 -22 -32 -7 -25 13 -28 19 -18 31
9 11 8 14 -5 14 -9 0 -16 -5 -16 -10z m-3 -52 c-3 -8 -6 -5 -6 6 -1 11 2 17 5
13 3 -3 4 -12 1 -19z m-17 -9 c0 -5 -4 -9 -8 -9 -5 0 -9 7 -9 15 0 8 4 12 9 9
4 -3 8 -9 8 -15z m47 -1 c-3 -8 -6 -5 -6 6 -1 11 2 17 5 13 3 -3 4 -12 1 -19z
m57 -23 c3 -8 1 -15 -4 -15 -6 0 -10 7 -10 15 0 8 2 15 4 15 2 0 6 -7 10 -15z
m-37 -17 c-3 -8 -6 -5 -6 6 -1 11 2 17 5 13 3 -3 4 -12 1 -19z m-47 -2 c0 -3
-4 -8 -10 -11 -5 -3 -10 -1 -10 4 0 6 5 11 10 11 6 0 10 -2 10 -4z m65 -26 c3
-5 1 -10 -4 -10 -6 0 -11 5 -11 10 0 6 2 10 4 10 3 0 8 -4 11 -10z m65 6 c0
-3 -4 -8 -10 -11 -5 -3 -10 -1 -10 4 0 6 5 11 10 11 6 0 10 -2 10 -4z"/>
<path d="M4157 1442 c-18 -20 -24 -77 -7 -67 6 4 9 12 8 18 -1 7 4 23 11 35
16 30 9 38 -12 14z"/>
<path d="M299 2377 c5 -5 19 -7 32 -5 20 3 19 5 -9 9 -20 3 -29 2 -23 -4z"/>
<path d="M570 2380 c20 -13 33 -13 25 0 -3 6 -14 10 -23 10 -15 0 -15 -2 -2
-10z"/>
<path d="M45 2340 c-3 -5 -1 -10 4 -10 6 0 11 5 11 10 0 6 -2 10 -4 10 -3 0
-8 -4 -11 -10z"/>
<path d="M705 2320 c3 -5 8 -10 11 -10 2 0 4 5 4 10 0 6 -5 10 -11 10 -5 0 -7
-4 -4 -10z"/>
<path d="M45 2310 c-4 -6 -14 -9 -22 -8 -21 4 -28 -18 -8 -26 9 -3 13 -2 10 3
-3 5 4 12 15 16 11 3 20 11 20 16 0 12 -7 12 -15 -1z"/>
<path d="M620 2310 c8 -5 20 -10 25 -10 6 0 3 5 -5 10 -8 5 -19 10 -25 10 -5
0 -3 -5 5 -10z"/>
<path d="M160 2291 c-8 -6 -17 -8 -21 -5 -4 2 -2 -7 4 -19 12 -27 33 -17 33
15 0 10 0 18 -1 18 0 0 -7 -4 -15 -9z"/>
<path d="M271 2243 c-18 -20 -6 -29 14 -10 8 9 12 18 8 20 -5 3 -14 -2 -22
-10z"/>
<path d="M862 2246 c7 -8 15 -12 17 -11 5 6 -10 25 -20 25 -5 0 -4 -6 3 -14z"/>
<path d="M3 2200 c0 -36 1 -38 14 -23 13 17 14 16 8 -4 -3 -12 -1 -24 7 -29 7
-4 10 -4 6 1 -12 13 12 47 28 41 9 -3 12 -2 9 5 -4 6 -14 8 -22 5 -8 -3 -20
-3 -26 1 -7 5 2 10 22 13 19 3 36 12 39 20 4 12 2 13 -9 3 -7 -7 -20 -13 -29
-13 -13 0 -13 1 0 10 13 8 12 10 -2 10 -10 0 -18 -4 -18 -10 0 -5 -5 -10 -11
-10 -5 0 -7 5 -4 10 3 6 2 10 -3 10 -5 0 -9 -18 -9 -40z"/>
<path d="M180 2231 c0 -5 5 -13 10 -16 6 -3 10 -2 10 4 0 5 -4 13 -10 16 -5 3
-10 2 -10 -4z"/>
<path d="M224 2215 c10 -7 15 -19 11 -25 -7 -12 13 -60 25 -60 3 0 6 8 6 19 0
11 -5 17 -13 14 -7 -3 -13 2 -13 12 0 9 5 13 10 10 6 -3 10 1 10 9 0 8 -9 20
-19 26 -28 15 -39 12 -17 -5z"/>
<path d="M94 2184 c3 -17 0 -36 -7 -43 -8 -8 -6 -11 11 -11 15 0 22 6 22 20 0
11 -5 20 -11 20 -5 0 -8 4 -5 8 2 4 0 14 -6 22 -7 11 -8 7 -4 -16z"/>
<path d="M281 2194 c0 -11 3 -14 6 -6 3 7 2 16 -1 19 -3 4 -6 -2 -5 -13z"/>
<path d="M141 2167 c-6 -8 -8 -17 -4 -21 10 -10 -29 -35 -46 -28 -9 3 -12 1
-7 -6 4 -7 17 -10 33 -6 18 5 24 3 19 -5 -4 -6 -19 -11 -34 -11 -18 0 -23 -3
-14 -9 7 -4 23 -7 35 -6 13 1 15 0 5 -2 -10 -2 -18 -9 -18 -14 0 -6 9 -7 20
-4 14 5 20 2 20 -9 0 -9 5 -16 10 -16 6 0 10 -8 10 -17 0 -14 -2 -15 -9 -4 -7
11 -11 10 -19 -5 -6 -11 -14 -15 -19 -10 -4 5 -2 11 5 13 19 7 14 23 -7 23
-25 0 -32 -11 -36 -63 -2 -28 -1 -35 5 -22 6 17 8 14 11 -15 2 -19 1 -55 -4
-80 -12 -73 12 -175 43 -183 14 -4 25 4 40 30 11 19 18 38 15 43 -3 5 4 18 15
28 17 16 20 28 16 61 -4 36 0 46 30 82 41 49 43 61 9 55 -23 -4 -25 -2 -19 17
6 22 6 22 -9 2 -15 -19 -15 -18 -21 15 -3 19 -5 46 -4 60 1 49 -1 52 -29 46
-22 -5 -25 -4 -13 4 11 9 12 13 3 17 -23 9 -14 25 10 18 17 -5 19 -4 7 4 -8 6
-24 8 -35 4 -17 -5 -18 -4 -6 11 7 9 11 16 8 16 -2 0 -10 -6 -16 -13z m19 -47
c0 -5 -4 -10 -10 -10 -5 0 -10 5 -10 10 0 6 5 10 10 10 6 0 10 -4 10 -10z m49
-36 c2 -2 -5 -4 -17 -4 -16 0 -22 -6 -22 -22 0 -22 -10 -20 -14 4 -1 7 -5 19
-9 25 -6 10 0 11 25 6 18 -3 35 -7 37 -9z m-9 -34 c0 -11 -2 -20 -4 -20 -2 0
-6 9 -9 20 -3 11 -1 20 4 20 5 0 9 -9 9 -20z m-19 -77 c-12 -20 -14 -14 -5 12
4 9 9 14 11 11 3 -2 0 -13 -6 -23z m-61 -3 c0 -5 -2 -10 -4 -10 -3 0 -8 5 -11
10 -3 6 -1 10 4 10 6 0 11 -4 11 -10z m21 -13 c-10 -9 -11 -8 -5 6 3 10 9 15
12 12 3 -3 0 -11 -7 -18z m88 -24 c1 9 8 17 16 17 12 0 13 -4 3 -25 -6 -14
-15 -25 -19 -25 -4 0 -9 -8 -11 -17 -3 -10 -4 2 -5 27 0 32 2 39 8 25 6 -17 8
-17 8 -2z m-102 -25 c-3 -7 -5 -2 -5 12 0 14 2 19 5 13 2 -7 2 -19 0 -25z m64
-15 c13 -16 12 -17 -3 -4 -10 7 -18 15 -18 17 0 8 8 3 21 -13z m-74 -115 c-2
-13 -4 -5 -4 17 -1 22 1 32 4 23 2 -10 2 -28 0 -40z"/>
<path d="M301 2167 c-1 -10 -5 -15 -11 -12 -5 3 -10 -2 -10 -12 0 -16 1 -16
16 -1 9 9 14 22 11 30 -4 9 -6 7 -6 -5z"/>
<path d="M56 2161 c-4 -7 -5 -15 -2 -18 9 -9 19 4 14 18 -4 11 -6 11 -12 0z"/>
<path d="M228 2133 c5 -10 7 -25 5 -33 -4 -13 -3 -13 6 -1 9 14 -2 51 -15 51
-2 0 -1 -8 4 -17z"/>
<path d="M875 2140 c-3 -5 -1 -10 4 -10 6 0 11 5 11 10 0 6 -2 10 -4 10 -3 0
-8 -4 -11 -10z"/>
<path d="M343 2126 c-4 -7 -15 -15 -22 -18 -13 -4 -12 -5 1 -10 10 -4 19 2 27
18 11 26 7 33 -6 10z"/>
<path d="M0 2109 c0 -5 5 -7 10 -4 5 3 10 8 10 11 0 2 -4 4 -10 4 -5 0 -10 -5
-10 -11z"/>
<path d="M264 2103 c17 -58 18 -76 5 -84 -7 -4 -10 -11 -7 -14 4 -4 13 -3 20
1 7 5 19 9 25 9 7 0 13 3 13 8 0 4 0 14 0 22 0 8 -9 15 -20 15 -12 0 -20 6
-19 13 3 27 -2 47 -12 47 -6 0 -8 -8 -5 -17z"/>
<path d="M356 2104 c-10 -26 -7 -34 13 -34 12 0 21 -10 26 -27 4 -16 9 -23 12
-16 6 18 -15 53 -33 53 -11 0 -13 6 -9 20 7 24 0 27 -9 4z"/>
<path d="M668 2113 c7 -3 16 -2 19 1 4 3 -2 6 -13 5 -11 0 -14 -3 -6 -6z"/>
<path d="M741 2097 c-13 -21 -12 -21 5 -5 10 10 16 20 13 22 -3 3 -11 -5 -18
-17z"/>
<path d="M395 2100 c-3 -5 0 -10 8 -10 18 0 27 -33 22 -86 l-4 -42 35 32 c22
19 30 32 23 35 -7 2 -15 -1 -17 -7 -6 -19 -23 -14 -21 6 2 22 -20 82 -31 82
-5 0 -12 -4 -15 -10z"/>
<path d="M247 2083 c-4 -3 -7 -11 -7 -17 0 -6 5 -5 12 2 6 6 9 14 7 17 -3 3
-9 2 -12 -2z"/>
<path d="M680 2086 c0 -2 7 -7 16 -10 8 -3 12 -2 9 4 -6 10 -25 14 -25 6z"/>
<path d="M3 2054 c0 -7 6 -10 14 -7 17 7 17 20 0 20 -8 0 -14 -6 -14 -13z"/>
<path d="M470 2060 c0 -5 5 -10 11 -10 5 0 7 5 4 10 -3 6 -8 10 -11 10 -2 0
-4 -4 -4 -10z"/>
<path d="M46 2051 c-5 -7 -18 -17 -30 -22 -19 -8 -18 -9 7 -5 18 2 31 -2 34
-10 7 -19 23 -18 23 1 0 8 5 15 10 15 16 0 12 17 -6 24 -8 3 -12 2 -9 -4 3 -6
2 -10 -4 -10 -5 0 -11 5 -13 12 -3 9 -6 9 -12 -1z"/>
<path d="M256 2051 c-4 -7 -5 -15 -2 -18 9 -9 19 4 14 18 -4 11 -6 11 -12 0z"/>
<path d="M222 2020 c0 -14 2 -19 5 -12 2 6 2 18 0 25 -3 6 -5 1 -5 -13z"/>
<path d="M498 2003 c7 -3 16 -2 19 1 4 3 -2 6 -13 5 -11 0 -14 -3 -6 -6z"/>
<path d="M629 1984 c-4 -24 -2 -31 8 -27 13 5 33 34 33 47 0 3 -4 6 -10 6 -5
0 -10 -10 -11 -22 -1 -22 -1 -22 -8 2 -7 24 -8 24 -12 -6z"/>
<path d="M526 1984 c7 -3 11 -13 9 -22 -1 -9 0 -11 2 -4 3 6 10 12 16 12 7 0
6 4 -3 10 -8 5 -19 9 -25 9 -5 0 -5 -3 1 -5z"/>
<path d="M440 1960 c-6 -11 -9 -29 -7 -38 4 -13 5 -13 6 4 0 11 6 25 13 32 6
6 9 14 6 18 -4 3 -12 -4 -18 -16z"/>
<path d="M582 1966 c7 -8 15 -12 17 -11 5 6 -10 25 -20 25 -5 0 -4 -6 3 -14z"/>
<path d="M554 1946 c-3 -8 -4 -23 -1 -33 3 -12 5 -9 6 9 0 14 7 29 14 31 9 4
9 6 -1 6 -7 1 -15 -5 -18 -13z"/>
<path d="M576 1894 c-8 -22 -4 -25 11 -9 7 8 9 16 4 19 -5 3 -12 -1 -15 -10z"/>
<path d="M606 1782 c-2 -4 0 -14 5 -22 8 -13 10 -13 18 0 10 15 6 30 -9 30 -5
0 -11 -4 -14 -8z"/>
<path d="M261 1752 c-7 -13 -10 -31 -8 -40 4 -13 5 -11 6 5 0 12 6 23 13 25 6
2 9 11 6 18 -3 11 -8 9 -17 -8z"/>
<path d="M747 1691 c3 -11 9 -19 13 -16 5 3 11 -1 13 -7 3 -8 6 -8 6 -2 1 6
-8 19 -18 28 -19 17 -19 17 -14 -3z"/>
<path d="M673 1614 c-2 -7 -16 -14 -31 -17 -26 -5 -27 -8 -24 -51 4 -48 7 -50
63 -46 18 1 34 -8 53 -30 14 -17 26 -35 26 -39 0 -18 39 -8 44 12 10 39 7 87
-7 87 -7 0 -13 10 -14 21 -2 23 -23 52 -23 33 0 -6 -6 -11 -14 -11 -8 0 -12 6
-9 13 2 6 -1 15 -6 19 -6 3 -9 11 -6 16 4 5 -6 8 -21 7 -14 -2 -28 -8 -31 -14z
m47 -25 c0 -11 -4 -17 -10 -14 -5 3 -10 -1 -10 -9 0 -9 -4 -16 -9 -16 -5 0 -4
14 2 30 13 35 27 39 27 9z m-55 -9 c3 -5 -1 -10 -10 -10 -9 0 -13 5 -10 10 3
6 8 10 10 10 2 0 7 -4 10 -10z m75 -44 c0 -2 -13 -9 -30 -15 -16 -5 -30 -6
-30 -1 0 5 8 11 18 13 24 7 42 8 42 3z m36 -63 c-4 -4 -12 -1 -19 7 -9 10 -9
11 1 6 7 -4 12 -2 13 6 0 11 2 11 6 0 3 -7 2 -16 -1 -19z"/>
<path d="M1041 894 c0 -11 3 -14 6 -6 3 7 2 16 -1 19 -3 4 -6 -2 -5 -13z"/>
<path d="M6280 787 c0 -18 10 -38 28 -55 29 -28 38 -35 107 -87 22 -16 49 -38
60 -48 11 -11 36 -31 55 -46 19 -14 112 -87 205 -161 94 -75 220 -173 280
-220 61 -46 116 -90 123 -97 25 -25 101 -73 114 -73 12 0 -49 57 -98 90 -16
11 -194 152 -279 222 -11 9 -121 94 -169 131 -15 12 -63 50 -105 85 -74 61
-97 80 -171 140 -19 16 -50 38 -68 51 -18 12 -29 27 -25 33 4 7 0 9 -9 5 -11
-4 -21 4 -32 26 l-16 32 0 -28z"/>
<path d="M960 603 c-24 -21 -54 -48 -67 -60 -13 -12 -56 -48 -96 -80 -39 -31
-88 -72 -108 -90 -19 -18 -61 -52 -91 -76 -54 -41 -287 -233 -319 -262 -9 -8
-22 -15 -29 -15 -10 0 -11 -3 -3 -11 15 -15 42 -5 78 29 17 15 77 65 135 112
58 46 116 94 130 106 29 25 266 222 331 274 77 62 109 92 109 101 0 19 -27 8
-70 -28z"/>
<path d="M8185 610 c-11 -5 -68 -28 -127 -51 -60 -22 -108 -44 -108 -49 0 -17
249 -190 265 -184 12 5 15 30 15 150 0 151 -1 154 -45 134z"/>
<path d="M8100 104 c-58 -25 -112 -47 -120 -50 -104 -40 -122 -49 -103 -52 12
-2 41 6 65 16 24 11 98 41 166 68 67 27 122 52 122 56 0 14 -22 7 -130 -38z"/>
</g>
</svg>
