<svg xmlns="http://www.w3.org/2000/svg" width="80" height="80" viewBox="0 0 80 80"><defs><style>.a{fill:#ff7f3b;}.b{fill:#fff;}</style></defs><g transform="translate(422 10552)"><path class="a" d="M40,0A40,40,0,1,1,0,40,40,40,0,0,1,40,0Z" transform="translate(-422 -10552)"/><g transform="translate(-402.001 -10532)"><g transform="translate(0 37.319)"><path class="b" d="M38.813,366.48H1.4a1.342,1.342,0,0,0,0,2.682H38.813a1.342,1.342,0,0,0,0-2.682Z" transform="translate(-0.107 -366.48)"/></g><g transform="translate(-0.625 21.138)"><path class="b" d="M10.614,224.572,7.725,213.9a.6.6,0,0,0-1.167,0L3.686,224.538a.6.6,0,0,0,.575.8H6.549v3.092l1.193,0v-3.1H10.03a.6.6,0,0,0,.584-.761Z" transform="translate(-3.655 -213.458)"/></g><g transform="translate(8.87)"><path class="b" d="M111.833,0H91.775a1.092,1.092,0,0,0-1.108,1.066V36.09H96.3V31.208A1.44,1.44,0,0,1,97.764,29.8H105.8a1.44,1.44,0,0,1,1.5,1.374c0,.023,0,.047,0,.07v4.882l5.634-.016V1.082A1.091,1.091,0,0,0,111.833,0ZM100.218,24.768a1.317,1.317,0,0,1-1.337,1.269H95.362a1.316,1.316,0,0,1-1.337-1.286V21.371a1.312,1.312,0,0,1,1.337-1.286h3.519a1.376,1.376,0,0,1,.943.378,1.258,1.258,0,0,1,.393.907Zm0-8.137A1.317,1.317,0,0,1,98.881,17.9H95.362a1.316,1.316,0,0,1-1.337-1.286V13.242a1.312,1.312,0,0,1,1.337-1.286h3.519a1.376,1.376,0,0,1,.943.378,1.258,1.258,0,0,1,.393.907Zm0-8.137A1.316,1.316,0,0,1,98.881,9.78H95.362a1.316,1.316,0,0,1-1.337-1.286V5.118a1.312,1.312,0,0,1,1.337-1.286h3.519a1.376,1.376,0,0,1,.943.378,1.258,1.258,0,0,1,.393.907Zm9.356,16.261a1.316,1.316,0,0,1-1.337,1.282h-3.519a1.316,1.316,0,0,1-1.337-1.286V21.371a1.312,1.312,0,0,1,1.337-1.286h3.519a1.376,1.376,0,0,1,.943.378,1.258,1.258,0,0,1,.393.907Zm0-8.124a1.317,1.317,0,0,1-1.337,1.269h-3.519a1.316,1.316,0,0,1-1.337-1.286v-3.36a1.311,1.311,0,0,1,1.328-1.294h3.528a1.376,1.376,0,0,1,.943.378,1.257,1.257,0,0,1,.393.907Zm0-8.128a1.316,1.316,0,0,1-1.337,1.286h-3.519A1.316,1.316,0,0,1,103.382,8.5V5.118a1.312,1.312,0,0,1,1.337-1.286h3.519a1.376,1.376,0,0,1,.943.378,1.258,1.258,0,0,1,.393.907Z" transform="translate(-90.667)"/></g><g transform="translate(33.649 21.134)"><path class="b" d="M329.187,224.536,326.3,213.864a.6.6,0,0,0-1.167,0L322.246,224.5a.6.6,0,0,0,.575.8h2.288v3.092l1.205,0v-3.1H328.6a.6.6,0,0,0,.584-.761Z" transform="translate(-322.215 -213.418)"/></g></g></g></svg>