<svg xmlns="http://www.w3.org/2000/svg" width="14.116" height="15.026" viewBox="0 0 14.116 15.026"><defs><style>.a{fill:#0f2126;}</style></defs><g transform="translate(0)"><path class="a" d="M28.3,0H16.821A1.322,1.322,0,0,0,15.5,1.321V13.706a1.322,1.322,0,0,0,1.321,1.321h9.714a.444.444,0,0,0,.311-.129l2.641-2.641h0a.444.444,0,0,0,.129-.311V1.321A1.322,1.322,0,0,0,28.3,0ZM26.975,13.523V12.385h1.138ZM28.736,11.5h-2.2a.44.44,0,0,0-.44.44v2.2H16.821a.441.441,0,0,1-.44-.44V1.321a.441.441,0,0,1,.44-.44H28.3a.441.441,0,0,1,.44.44Z" transform="translate(-15.5)"/></g><g transform="translate(2.671 1.79)"><path class="a" d="M114.3,66.412a.44.44,0,0,0-.623.623l.129.129h-2.975a1.32,1.32,0,0,0-2.49,0h-.076a.88.88,0,0,1,0-1.761h2.717a1.32,1.32,0,0,0,2.49,0h.076a1.761,1.761,0,1,0,0-3.522h-4.478a1.321,1.321,0,1,0,0,.88h4.478a.88.88,0,1,1,0,1.761h-.076a1.32,1.32,0,0,0-2.49,0h-2.717a1.761,1.761,0,0,0,0,3.522h.076a1.32,1.32,0,0,0,2.49,0H113.8l-.129.129a.44.44,0,1,0,.623.623l.88-.88a.441.441,0,0,0,0-.623Zm-6.474-3.651a.44.44,0,1,1,.44-.44A.441.441,0,0,1,107.821,62.761Zm4.4,1.761a.44.44,0,1,1-.44.44A.441.441,0,0,1,112.223,64.522Zm-2.641,3.522a.44.44,0,1,1,.44-.44A.441.441,0,0,1,109.582,68.044Z" transform="translate(-106.5 -61)"/></g><g transform="translate(2.671 10.624)"><path class="a" d="M108.7,362H106.94a.44.44,0,0,0,0,.88H108.7a.44.44,0,1,0,0-.88Z" transform="translate(-106.5 -362)"/></g><g transform="translate(2.671 12.385)"><path class="a" d="M110.462,422H106.94a.44.44,0,0,0,0,.88h3.522a.44.44,0,0,0,0-.88Z" transform="translate(-106.5 -422)"/></g></svg>