<svg xmlns="http://www.w3.org/2000/svg" width="16.254" height="16.254" viewBox="0 0 16.254 16.254"><defs><style>.a{fill:#0f2126;}</style></defs><g transform="translate(3.81 8.952)"><path class="a" d="M121.429,282a1.429,1.429,0,1,0,1.429,1.429A1.43,1.43,0,0,0,121.429,282Zm0,1.9a.476.476,0,1,1,.476-.476A.477.477,0,0,1,121.429,283.9Z" transform="translate(-120 -282)"/></g><path class="a" d="M12.909,7.886A4.412,4.412,0,1,0,6.257,6.413H1.429A1.43,1.43,0,0,0,0,7.841v6.984a1.43,1.43,0,0,0,1.429,1.429H16.254v-4.73A3.656,3.656,0,0,0,12.909,7.886ZM9.524,14.825a.477.477,0,0,1-.476.476H1.429a.477.477,0,0,1-.476-.476v-.476H9.524Zm0-1.429H.952V7.841a.477.477,0,0,1,.476-.476H9.048a.477.477,0,0,1,.476.476ZM9.048,6.413H7.367a3.417,3.417,0,0,1-.637-2,3.46,3.46,0,1,1,3.746,3.448v-.02A1.43,1.43,0,0,0,9.048,6.413ZM15.3,15.3H10.394a1.422,1.422,0,0,0,.082-.476v-6H12.6a2.7,2.7,0,0,1,2.7,2.7Z"/></svg>